<svg width="133" height="100" viewBox="0 0 133 100" fill="none" xmlns="http://www.w3.org/2000/svg">
<path d="M41.6345 100H2.76233V92.3204C2.76233 90.8025 3.98565 89.5724 5.49461 89.5724H38.9024C40.4113 89.5724 41.6345 90.8025 41.6345 92.3204V100Z" fill="#3152AA"/>
<path d="M130.57 100H92.6619V92.2954C92.6619 90.7917 93.8738 89.5724 95.369 89.5724H127.863C129.359 89.5724 130.57 90.7917 130.57 92.2954V100Z" fill="#D41F28"/>
<path d="M10.7116 42.6945V46.6692H19.6353V53.3901H10.7116V64.6182H2.84692V35.9328H25.4217V42.6945H10.7116Z" fill="#100F0D"/>
<path d="M33.8852 64.6182V44.8664H29.077V39.8257C32.7442 39.6209 34.2114 38.5962 35.0264 35.9328H41.6278V64.6182H33.8852Z" fill="#100F0D"/>
<path d="M63.1064 42.4073H58.3388V48.6773H62.9841C65.5511 48.6773 66.57 47.5299 66.57 45.4809C66.57 43.6775 65.592 42.4073 63.1064 42.4073ZM66.1621 64.6182L61.5168 54.9472H58.3388V64.6182H50.5555V35.9328H63.3101C69.9927 35.9328 74.4343 38.4732 74.4343 45.276C74.4343 49.5789 72.4373 52.2424 69.3003 53.6769L75.0049 64.6182H66.1621Z" fill="#100F0D"/>
<path d="M91.8035 65.0693C87.1992 65.0693 82.7576 63.5531 79.7827 61.586L83.6133 55.357C85.691 56.7913 89.3179 58.2259 91.9668 58.2259C94.7784 58.2259 95.6745 57.7343 95.6745 56.3817C95.6745 55.3164 94.6561 54.6606 90.8256 53.7589C83.9393 52.161 80.6384 50.2758 80.6384 44.5388C80.6384 39.1291 84.9986 35.4822 91.8849 35.4822C96.7339 35.4822 100.238 36.6706 103.254 38.8013L99.4237 45.0303C96.8971 43.3092 94.3711 42.3257 91.4775 42.3257C89.1142 42.3257 88.5441 43.0632 88.5441 44.0879C88.5441 45.1533 89.5625 45.6453 93.2298 46.5056C100.402 48.2265 103.58 50.4396 103.58 55.8079C103.58 62.3647 98.6494 65.0693 91.8035 65.0693" fill="#100F0D"/>
<path d="M122.556 42.8581V64.6182H114.651V42.8581H106.665V35.9328H130.543V42.8581H122.556Z" fill="#100F0D"/>
<path d="M50.7111 95.0609H47.9098V97.8018H50.7111C51.7348 97.8018 52.2168 97.2566 52.2168 96.4238C52.2168 95.5149 51.7348 95.0609 50.7111 95.0609V95.0609ZM50.5905 91.1686H47.9098V93.1827H50.6959C51.5692 93.1827 51.8855 92.7735 51.8855 92.1836C51.8855 91.517 51.5092 91.1686 50.5905 91.1686ZM50.6353 99.8159H45.8468V89.215H50.6807C52.7285 89.215 54.0233 90.1995 54.0233 92.0166C54.0233 92.9253 53.6022 93.6526 52.9093 94.0763C53.7527 94.4551 54.3854 95.2272 54.3854 96.3934C54.3854 98.6195 52.8942 99.8159 50.6353 99.8159" fill="#100F0D"/>
<path d="M60.7544 91.1535C59.0528 91.1535 58.3453 92.6225 58.3453 94.5153C58.3453 96.4087 59.0528 97.8777 60.7544 97.8777C62.4566 97.8777 63.1641 96.4087 63.1641 94.5153C63.1641 92.6225 62.4566 91.1535 60.7544 91.1535ZM60.7544 99.9824C57.8787 99.9824 56.1771 97.7412 56.1771 94.5153C56.1771 91.29 57.8787 89.0488 60.7544 89.0488C63.6307 89.0488 65.3324 91.29 65.3324 94.5153C65.3324 97.7412 63.6307 99.9824 60.7544 99.9824Z" fill="#100F0D"/>
<path d="M76.4463 99.8159H74.3831L73.0877 94.364C72.9374 93.728 72.7865 92.9405 72.7267 92.5466C72.6809 92.9405 72.5306 93.743 72.3802 94.364L71.0553 99.8159H69.082L66.8842 89.215H69.082L70.0013 94.3793C70.0913 94.8941 70.2114 95.6813 70.2572 96.1207C70.3321 95.6813 70.4981 94.8941 70.6183 94.3793L71.8533 89.215H73.6901L74.9402 94.3793C75.0609 94.8941 75.2264 95.6813 75.3018 96.1207C75.3465 95.6813 75.4672 94.8788 75.5577 94.3793L76.4759 89.215H78.6447L76.4463 99.8159Z" fill="#100F0D"/>
<path d="M81.0555 99.8159V89.215H83.1639V97.7258H88.4493V99.8159H81.0555Z" fill="#100F0D"/>
<path d="M8.13932 73.4096H6.04563V76.163H8.08586C9.21359 76.163 9.66087 75.6595 9.66087 74.7594C9.66087 73.9674 9.23104 73.4096 8.13932 73.4096ZM9.48155 83.1636L7.44153 78.9163H6.04563V83.1636H2.62805V70.567H8.22898C11.1637 70.567 13.114 71.6821 13.114 74.6691C13.114 76.5591 12.2374 77.729 10.8598 78.3588L13.3645 83.1636H9.48155Z" fill="#100F0D"/>
<path d="M17.1342 83.1636V70.567H26.7254V73.5001H20.5699V75.1734H24.2742V78.0704H20.5699V80.2304H26.8507V83.1636H17.1342Z" fill="#100F0D"/>
<path d="M35.8902 83.3623C33.8677 83.3623 31.9176 82.6959 30.6115 81.8325L32.2933 79.0966C33.2059 79.7263 34.7986 80.3572 35.962 80.3572C37.1963 80.3572 37.59 80.1408 37.59 79.5464C37.59 79.0793 37.1428 78.7909 35.4604 78.3949C32.4364 77.6932 30.9872 76.8651 30.9872 74.3464C30.9872 71.9708 32.902 70.369 35.9257 70.369C38.0556 70.369 39.5941 70.8908 40.9186 71.8266L39.2362 74.5621C38.1272 73.8062 37.0175 73.3742 35.7471 73.3742C34.709 73.3742 34.4585 73.6983 34.4585 74.1481C34.4585 74.6157 34.9058 74.832 36.5164 75.2097C39.6656 75.9655 41.0613 76.9371 41.0613 79.2949C41.0613 82.1739 38.8961 83.3623 35.8902 83.3623" fill="#100F0D"/>
<path d="M50.8328 73.4096H48.9534V76.235H50.7791C51.9062 76.235 52.3537 75.7494 52.3537 74.7959C52.3537 73.9674 51.9418 73.4096 50.8328 73.4096ZM50.6894 79.0789H48.9534V83.1636H45.5358V70.567H50.9218C53.8565 70.567 55.8074 71.7005 55.8074 74.741C55.8074 77.9447 53.6957 79.0789 50.6894 79.0789" fill="#100F0D"/>
<path d="M84.7201 83.1636L81.7317 79.0069C81.1767 78.233 80.1028 76.6126 79.7811 76.0551C79.8706 76.6126 79.8889 78.2866 79.8889 79.3123V83.1636H76.56V70.567H79.62L82.3762 74.2912C82.9489 75.0651 84.0579 76.739 84.3262 77.2608C84.2367 76.7032 84.219 75.0293 84.219 74.0036V70.567H87.5473V83.1636H84.7201Z" fill="#100F0D"/>
<path d="M96.7457 73.5537H95.8874V80.1762H96.6385C98.8041 80.1762 99.6452 79.3481 99.6452 76.8467C99.6452 74.5259 98.9108 73.5537 96.7457 73.5537ZM96.4418 83.1636H92.3796V70.567H96.7641C100.701 70.567 103.206 72.0597 103.206 76.7925C103.206 81.5254 100.879 83.1636 96.4418 83.1636Z" fill="#100F0D"/>
<path d="M106.45 83.1636V70.567H116.041V73.5001H109.886V75.1734H113.59V78.0704H109.886V80.2304H116.166V83.1636H106.45Z" fill="#100F0D"/>
<path d="M125.78 73.4096H123.687V76.163H125.727C126.855 76.163 127.302 75.6595 127.302 74.7594C127.302 73.9674 126.872 73.4096 125.78 73.4096V73.4096ZM127.122 83.1636L125.082 78.9163H123.687V83.1636H120.269V70.567H125.87C128.805 70.567 130.755 71.6821 130.755 74.6691C130.755 76.5591 129.878 77.729 128.501 78.3588L131.005 83.1636H127.122Z" fill="#100F0D"/>
<path d="M65.9746 67.8023C65.3243 67.8023 64.6841 67.9785 64.1232 68.3112C60.811 70.2783 58.8464 73.5514 58.8674 77.0672C58.8884 80.5829 60.8918 83.8321 64.2272 85.7585C64.7784 86.0771 65.4062 86.2456 66.0409 86.2456C66.6913 86.2456 67.3314 86.0695 67.8923 85.7363C71.2045 83.7696 73.1691 80.4967 73.1481 76.981C73.1276 73.4651 71.1237 70.2161 67.7883 68.2896C67.2371 67.971 66.6099 67.8023 65.9746 67.8023ZM65.9746 70.4739C66.1438 70.4739 66.313 70.5179 66.4655 70.6056C68.8849 72.0033 70.476 74.3403 70.4922 76.9973C70.5078 79.6536 68.9441 82.0098 66.542 83.4358C66.3868 83.5281 66.2139 83.574 66.0409 83.574C65.8717 83.574 65.7025 83.5302 65.55 83.4419C63.1307 82.0449 61.5395 79.7072 61.5233 77.0509C61.5077 74.3945 63.0714 72.0384 65.4735 70.6117C65.6287 70.52 65.8017 70.4739 65.9746 70.4739Z" fill="#100F0D"/>
<path d="M66.8815 75.0312H65.1594C65.001 75.0312 64.8716 74.9011 64.8716 74.7423V74.6808C64.8716 74.5213 65.001 74.3914 65.1594 74.3914H66.8815C67.0399 74.3914 67.1692 74.5213 67.1692 74.6808V74.7423C67.1692 74.9011 67.0399 75.0312 66.8815 75.0312Z" fill="#100F0D"/>
<path d="M66.8815 76.2056H65.1594C65.001 76.2056 64.8716 76.075 64.8716 75.9162V75.8546C64.8716 75.6952 65.001 75.565 65.1594 75.565H66.8815C67.0399 75.565 67.1692 75.6952 67.1692 75.8546V75.9162C67.1692 76.075 67.0399 76.2056 66.8815 76.2056Z" fill="#100F0D"/>
<path d="M66.8815 77.3794H65.1594C65.001 77.3794 64.8716 77.2494 64.8716 77.09V77.0282C64.8716 76.869 65.001 76.7388 65.1594 76.7388H66.8815C67.0399 76.7388 67.1692 76.869 67.1692 77.0282V77.09C67.1692 77.2494 67.0399 77.3794 66.8815 77.3794Z" fill="#100F0D"/>
<path d="M66.8815 78.5527H65.1594C65.001 78.5527 64.8716 78.4227 64.8716 78.2634V78.2015C64.8716 78.0424 65.001 77.9122 65.1594 77.9122H66.8815C67.0399 77.9122 67.1692 78.0424 67.1692 78.2015V78.2634C67.1692 78.4227 67.0399 78.5527 66.8815 78.5527Z" fill="#100F0D"/>
<path d="M66.8815 79.7266H65.1594C65.001 79.7266 64.8716 79.5966 64.8716 79.4372V79.3754C64.8716 79.2167 65.001 79.0861 65.1594 79.0861H66.8815C67.0399 79.0861 67.1692 79.2167 67.1692 79.3754V79.4372C67.1692 79.5966 67.0399 79.7266 66.8815 79.7266Z" fill="#100F0D"/>
<path d="M15.6226 28.5669L10.8947 20.7225L2.55187 23.2L1.4801 20.4716L66.5005 1.16308L131.52 20.4716L130.449 23.2L122.106 20.7225L117.378 28.5669H15.6226Z" fill="#F2531B"/>
<path d="M66.5005 -0.00275788L0 19.7453L1.8916 24.561L10.3881 22.038L14.9966 29.6846H118.004L122.612 22.038L131.109 24.561L133.001 19.7453L66.5005 -0.00275788ZM66.5005 1.16284L131.52 20.4714L130.449 23.1998L122.106 20.7223L117.378 28.5667H15.6226L10.8947 20.7223L2.55188 23.1998L1.48011 20.4714L66.5005 1.16284Z" fill="white"/>
<path d="M106.115 24.4602C106.054 24.6028 105.969 24.7274 105.859 24.8341C105.741 24.9458 105.61 25.0319 105.467 25.0915C105.323 25.1511 105.175 25.181 105.023 25.181C104.867 25.181 104.717 25.1501 104.572 25.0888C104.428 25.0271 104.3 24.9382 104.187 24.8228C104.077 24.7122 103.992 24.586 103.934 24.4445C103.876 24.3031 103.847 24.153 103.847 23.9953C103.847 23.8392 103.878 23.6875 103.94 23.5407C104.002 23.3944 104.091 23.2632 104.206 23.1473C104.316 23.0367 104.44 22.9533 104.578 22.8969C104.717 22.8405 104.866 22.8118 105.027 22.8118C105.19 22.8118 105.343 22.8416 105.485 22.9018C105.628 22.9614 105.756 23.0503 105.87 23.1684C105.981 23.2811 106.065 23.409 106.122 23.5515C106.178 23.694 106.207 23.8495 106.207 24.0186C106.207 24.1709 106.176 24.3183 106.115 24.4602V24.4602ZM106.337 23.4561C106.269 23.2854 106.169 23.1342 106.039 23.0015C105.903 22.8622 105.749 22.7565 105.576 22.6834C105.402 22.6097 105.218 22.5729 105.023 22.5729C104.769 22.5729 104.537 22.633 104.327 22.7538C104.116 22.8741 103.947 23.0427 103.818 23.2594C103.75 23.377 103.699 23.4968 103.664 23.6198C103.63 23.7428 103.613 23.8696 103.613 23.9996C103.613 24.1855 103.648 24.3632 103.717 24.5334C103.786 24.7035 103.886 24.8558 104.018 24.9897C104.154 25.1284 104.308 25.2351 104.481 25.3094C104.653 25.3831 104.834 25.4199 105.023 25.4199C105.208 25.4199 105.387 25.3842 105.56 25.3132C105.733 25.2416 105.888 25.1392 106.024 25.0048C106.159 24.8737 106.263 24.722 106.334 24.5491C106.405 24.3763 106.44 24.1931 106.44 23.9996C106.44 23.8084 106.406 23.6274 106.337 23.4561" fill="white"/>
<path d="M105.254 23.8273C105.201 23.8631 105.119 23.881 105.007 23.881H104.819V23.4242H104.988C105.105 23.4242 105.192 23.4431 105.248 23.4816C105.304 23.5195 105.331 23.5786 105.331 23.6593C105.331 23.7352 105.306 23.7916 105.254 23.8273V23.8273ZM105.634 23.9021C105.695 23.8279 105.725 23.739 105.725 23.6344C105.725 23.4838 105.669 23.3705 105.557 23.2947C105.445 23.2188 105.277 23.1809 105.053 23.1809H104.438V24.7583H104.819V24.1124H105.007L105.307 24.7583H105.733L105.381 24.0528C105.489 24.0262 105.573 23.9758 105.634 23.9021Z" fill="white"/>
<path d="M29.3403 23.621L30.9951 21.6334C32.0525 22.4809 33.2323 22.9279 34.4737 22.9279C35.2703 22.9279 35.6993 22.6505 35.6993 22.1877V22.1574C35.6993 21.7103 35.347 21.4638 33.8913 21.1245C31.608 20.6011 29.8458 19.9535 29.8458 17.7339V17.7036C29.8458 15.7002 31.424 14.2512 33.9986 14.2512C35.822 14.2512 37.2472 14.7449 38.4118 15.6845L36.9254 17.7962C35.9447 17.1026 34.8719 16.7325 33.922 16.7325C33.2018 16.7325 32.8494 17.0409 32.8494 17.4261V17.457C32.8494 17.9501 33.2171 18.1658 34.7033 18.505C37.1706 19.0442 38.7029 19.8457 38.7029 21.8647V21.8951C38.7029 24.0989 36.9713 25.4087 34.3663 25.4087C32.4661 25.4087 30.6581 24.8077 29.3403 23.621" fill="white"/>
<path d="M39.9908 14.4357H48.6178V16.9788H42.9329V18.6121H48.0817V20.9704H42.9329V22.6811H48.6947V25.2236H39.9908V14.4357Z" fill="white"/>
<path d="M55.1468 19.614C56.1577 19.614 56.7401 19.1209 56.7401 18.3352V18.3043C56.7401 17.4568 56.1275 17.0254 55.1312 17.0254H53.1851V19.614H55.1468ZM50.2125 14.4357H55.2848C56.9244 14.4357 58.0581 14.8676 58.778 15.6073C59.4063 16.224 59.7285 17.0558 59.7285 18.1195V18.1498C59.7285 19.7993 58.8551 20.8929 57.522 21.4635L60.0809 25.2236H56.648L54.4878 21.9566H54.4571H53.1851V25.2236H50.2125V14.4357Z" fill="white"/>
<path d="M59.6067 14.4359H62.9318L65.3684 21.2632L67.8045 14.4359H71.0687L66.7166 25.3008H63.9583L59.6067 14.4359Z" fill="white"/>
<path d="M76.0341 19.7993C77.0918 19.7993 77.7352 19.2444 77.7352 18.3969V18.366C77.7352 17.441 77.0918 16.9479 76.0185 16.9479H74.6245V19.7993H76.0341ZM71.6518 14.4357H76.2486C78.9611 14.4357 80.7079 15.8381 80.7079 18.2268V18.2582C80.7079 20.8007 78.7622 22.1414 76.0955 22.1414H74.6245V25.2236H71.6518V14.4357Z" fill="white"/>
<path d="M86.5925 19.614C87.6039 19.614 88.1864 19.1209 88.1864 18.3352V18.3043C88.1864 17.4568 87.5732 17.0254 86.5775 17.0254H84.6312V19.614H86.5925ZM81.6584 14.4357H86.731C88.3702 14.4357 89.5044 14.8676 90.2248 15.6073C90.8526 16.224 91.1748 17.0558 91.1748 18.1195V18.1498C91.1748 19.7993 90.3013 20.8929 88.9677 21.4635L91.5266 25.2236H88.0943L85.9341 21.9566H85.9034H84.6312V25.2236H81.6584V14.4357Z" fill="white"/>
<path d="M100.522 19.8607V19.8298C100.522 18.2735 99.4043 16.9177 97.7646 16.9177C96.1401 16.9177 95.0522 18.2426 95.0522 19.7995V19.8298C95.0522 21.3867 96.1708 22.7425 97.7954 22.7425C99.4345 22.7425 100.522 21.417 100.522 19.8607ZM92.0024 19.8607V19.8298C92.0024 16.7324 94.4853 14.2207 97.7954 14.2207C101.105 14.2207 103.557 16.702 103.557 19.7995V19.8298C103.557 22.9278 101.075 25.4395 97.7646 25.4395C94.4546 25.4395 92.0024 22.9587 92.0024 19.8607Z" fill="white"/>
</svg>
