<svg width="32" height="32" viewBox="0 0 32 32" fill="none" xmlns="http://www.w3.org/2000/svg">
  <path fill-rule="evenodd" clip-rule="evenodd" d="M29.5999 23.7C26.8999 28.5 21.6999 31.5 16.0999 31.5C10.5999 31.5 5.39993 28.5 2.59993 23.7C-0.200071 18.9 -0.200071 12.9 2.59993 8.10005C5.39993 3.30005 10.4999 0.300049 16.0999 0.300049C21.5999 0.300049 26.7999 3.30005 29.5999 8.10005C32.3999 12.9 32.2999 18.9 29.5999 23.7ZM28.6999 8.60005C26.0999 4.10005 21.2999 1.30005 16.0999 1.30005C10.8999 1.30005 6.09993 4.10005 3.49993 8.60005C0.899927 13.1 0.899927 18.7 3.49993 23.2C6.09993 27.7 10.8999 30.5 16.0999 30.5C21.2999 30.5 26.0999 27.7 28.6999 23.2C31.2999 18.7 31.2999 13.1 28.6999 8.60005Z" fill="#C4C4C4"/>
  <path d="M17.9 9.6001L11.9 15.8001V16.0001L18 22.2001V20.0001L13.9 15.9001L18 11.8001L17.9 9.6001Z" fill="#C4C4C4"/>
</svg>
