<svg width="18" height="18" viewBox="0 0 18 18" fill="none" xmlns="http://www.w3.org/2000/svg">
  <path fill-rule="evenodd" clip-rule="evenodd" d="M13.4328 0.410765C12.3429 0.463011 11.2948 0.938449 10.4846 1.74826L7.30635 4.92482C7.80556 4.42325 9.65865 4.76808 10.1082 5.21739L12.0319 3.29474C12.4579 2.86894 12.9911 2.60771 13.5373 2.5842C13.9085 2.56591 14.4338 2.64428 14.8964 3.10666C15.3277 3.53769 15.4192 4.03925 15.4192 4.38146C15.4192 4.95355 15.1578 5.52303 14.7083 5.96973L11.3628 9.33437C10.5212 10.1755 9.24046 10.2435 8.49818 9.50156C8.07477 9.07837 7.37692 9.07576 6.95089 9.50156C6.52486 9.92737 6.52486 10.6222 6.95089 11.048C7.71408 11.8108 8.71773 12.1975 9.75274 12.1975C10.8714 12.1975 12.0136 11.7403 12.8891 10.86L16.2556 7.51621C17.1102 6.66461 17.5938 5.52564 17.5938 4.38146C17.5938 3.31825 17.1913 2.30729 16.4437 1.56018C15.644 0.760813 14.5697 0.358519 13.4328 0.410765ZM8.24726 5.80255C7.12861 5.80255 5.96814 6.26231 5.08995 7.14004L1.74445 10.4838C0.889779 11.3354 0.40625 12.4744 0.40625 13.6185C0.40625 14.6817 0.808756 15.6927 1.55627 16.4398C2.35605 17.2392 3.43027 17.6415 4.56721 17.5892C5.65711 17.537 6.7052 17.0616 7.51543 16.2517L10.6937 13.0752C10.1918 13.5767 8.34135 13.2319 7.8918 12.7826L5.96814 14.7053C5.54211 15.1311 5.00892 15.3897 4.46267 15.4158C4.09153 15.4341 3.56618 15.3557 3.10356 14.8933C2.6723 14.4623 2.58082 13.9581 2.58082 13.6185C2.58082 13.0464 2.84219 12.477 3.29174 12.0303L6.63724 8.66563C7.47884 7.82447 8.75954 7.75916 9.50183 8.49844C9.92785 8.92424 10.6257 8.92424 11.0491 8.49844C11.4751 8.07263 11.4751 7.37776 11.0491 6.95196C10.2859 6.18917 9.27966 5.80255 8.24726 5.80255Z" fill="#FF6600"/>
</svg>
