<svg width="22" height="22" viewBox="0 0 32 26" fill="none" xmlns="http://www.w3.org/2000/svg">
  <path fill-rule="evenodd" clip-rule="evenodd" d="M10.2379 25.7176C21.9358 25.7176 28.3367 16.0169 28.3367 7.61875C28.3367 7.34585 28.3367 7.07294 28.3243 6.80003C29.5648 5.90687 30.6441 4.77802 31.5 3.50031C30.3587 4.00891 29.1307 4.34384 27.8405 4.50511C29.1555 3.7236 30.1603 2.4707 30.6441 0.9821C29.416 1.71399 28.0514 2.235 26.6 2.52032C25.434 1.27982 23.7841 0.510712 21.9606 0.510712C18.45 0.510712 15.5968 3.36385 15.5968 6.87446C15.5968 7.37066 15.6589 7.85445 15.7581 8.32584C10.4736 8.06533 5.78451 5.52232 2.64606 1.67678C2.10024 2.61956 1.79012 3.71119 1.79012 4.87726C1.79012 7.08534 2.91897 9.03292 4.61845 10.1742C3.57643 10.137 2.59644 9.85165 1.7405 9.38026C1.7405 9.40507 1.7405 9.42988 1.7405 9.46709C1.7405 12.5435 3.93617 15.1238 6.83894 15.7068C6.30552 15.8556 5.7473 15.9301 5.16427 15.9301C4.7549 15.9301 4.35794 15.8929 3.97339 15.8184C4.77971 18.349 7.13665 20.185 9.91537 20.2346C7.73209 21.9465 4.9906 22.9637 2.01341 22.9637C1.5048 22.9637 0.996198 22.9389 0.5 22.8769C3.30352 24.6632 6.65286 25.7176 10.2379 25.7176Z" fill="#FF6600"/>
</svg>
