<svg fill="none" viewBox="0 0 287 62" xmlns="http://www.w3.org/2000/svg">
  <path d="m143.5 0-143.5 42.6667 3.09077 7.7777 18.43423-5.4444 10.1554 17h223.7496l10.155-17 18.435 5.4444 2.98-7.7777z" fill="#f60"/>
  <g fill="#fff">
    <path clip-rule="evenodd" d="m228.462 48.896c.33.3392.549.6783.659 1.0174.11.3392.22.7913.22 1.1305 0 .4521-.11.9043-.22 1.2435-.11.3391-.329.6782-.659 1.0173-.33.3392-.659.5653-.989.6783-.075.0194-.147.0388-.218.0576-.338.0909-.626.1685-.99.1685-.44 0-.879-.1131-1.209-.2261s-.659-.3391-.989-.6783c-.329-.3391-.549-.6782-.659-1.0173-.11-.3392-.22-.6783-.22-1.1305 0-.2261 0-.5652.11-.7913.055-.113.11-.2543.165-.3956s.11-.2826.165-.3957c.329-.4522.659-.9043 1.098-1.1304.44-.3392.989-.4522 1.539-.4522.439 0 .878.113 1.208.2261.33.113.659.3391.989.6782zm-.33 3.9566c.22-.2261.44-.4522.55-.7913.11-.2261.11-.5653.11-1.1305 0-.3391-.11-.6782-.22-1.0174-.11-.226-.33-.5652-.55-.7913-.098-.0674-.187-.1349-.271-.1994-.199-.1515-.376-.2865-.608-.3658-.329-.113-.659-.2261-.988-.2261-.33 0-.66.1131-.989.2261-.22.1131-.549.3391-.769.5652-.066.1012-.131.1924-.194.2795-.147.2047-.278.387-.356.6249-.109.3391-.219.6782-.219 1.0174 0 .3391.11.6782.219 1.0174.11.2261.33.5652.55.7913.098.0674.187.1349.271.1994.199.1515.376.2865.608.3658.329.113.659.2261.989.2261.329 0 .659-.1131.988-.2261.33-.1131.66-.3391.879-.5652z" fill-rule="evenodd"/>
    <path clip-rule="evenodd" d="m227.803 50.2527c0 .2261-.11.4522-.22.5653-.11.226-.33.3391-.549.3391l.769 1.5826h-.879l-.66-1.4696h-.439v1.4696h-.769v-3.5043h1.318c.55 0 .879.113 1.099.226.22.2261.33.4522.33.7913zm-1.539.5653c.22 0 .44 0 .55-.1131.11-.113.11-.2261.11-.4522 0-.113-.11-.226-.22-.3391-.11-.113-.33-.113-.549-.113h-.33v1.0174z" fill-rule="evenodd"/>
    <path d="m63.1099 50.2524 3.5158-4.4087c2.3072 1.9217 4.8342 2.8261 7.471 2.8261 1.7579 0 2.6368-.5652 2.6368-1.5826v-.1131c0-1.0174-.769-1.5826-3.8453-2.2608-4.9441-1.1305-8.6797-2.6-8.6797-7.4609v-.1131c0-4.4087 3.406-7.5739 8.8994-7.5739 3.9553 0 7.0316 1.1305 9.5585 3.1652l-3.1861 4.6348c-2.0875-1.5826-4.3948-2.3739-6.4823-2.3739-1.5381 0-2.3072.6783-2.3072 1.5826v.1131c0 1.1304.7691 1.5826 3.9552 2.2608 5.2737 1.2435 8.5698 2.9392 8.5698 7.4609v.1131c0 4.8608-3.7355 7.8-9.3388 7.8-3.9553-.1131-7.9106-1.4696-10.7671-4.0696z"/>
    <path d="m86.0723 30.0176h18.6777v5.6522h-12.3054v3.5043h11.0964v5.2h-11.0964v3.8435h12.4154v5.6522h-18.7877z"/>
    <path clip-rule="evenodd" d="m119.143 30.0176h-10.767v23.8522h6.372v-7.2348h2.747.11l4.614 7.2348h7.361l-5.493-8.2522c2.856-1.2435 4.724-3.7305 4.724-7.3478v-.1131c0-2.3739-.769-4.1826-2.087-5.5391-1.648-1.6957-4.065-2.6-7.581-2.6zm3.076 8.5913c0 1.6956-1.208 2.8261-3.406 2.8261h-4.285v-5.7652h4.175c2.198 0 3.516.9043 3.516 2.826z" fill-rule="evenodd"/>
    <path d="m128.372 30.0176h7.141l5.274 15.0348 5.273-15.0348h7.032l-9.339 23.9652h-5.933z"/>
    <path clip-rule="evenodd" d="m164.189 30.0176h-9.778v23.8522h6.372v-6.7827h3.076c5.713 0 9.888-2.9391 9.888-8.5913v-.113c0-5.313-3.735-8.3652-9.558-8.3652zm3.186 8.7043c0 1.8087-1.318 3.0522-3.626 3.0522h-2.966v-6.3304h2.857c2.307 0 3.735 1.1304 3.735 3.1652z" fill-rule="evenodd"/>
    <path clip-rule="evenodd" d="m186.932 30.0176h-10.767v23.8522h6.372v-7.2348h2.747.109l4.615 7.2348h7.361l-5.493-8.2522c2.856-1.2435 4.724-3.7305 4.724-7.3478v-.1131c0-2.3739-.769-4.1826-2.087-5.5391-1.648-1.6957-4.066-2.6-7.581-2.6zm3.076 8.5913c0 1.6956-1.209 2.8261-3.406 2.8261h-4.285v-5.7652h4.175c2.198 0 3.516.9043 3.516 2.826z" fill-rule="evenodd"/>
    <path clip-rule="evenodd" d="m210.773 29.5654c-7.141 0-12.525 5.5392-12.525 12.4348 0 6.7826 5.274 12.2087 12.415 12.3218 7.142 0 12.525-5.5392 12.525-12.3218v-.113c0-6.8957-5.274-12.3218-12.415-12.3218zm-.11 5.9913c3.516 0 5.933 2.9392 5.933 6.4435 0 3.3913-2.307 6.3304-5.823 6.4435-3.516 0-5.933-3.0522-5.933-6.4435v-.113c0-3.3913 2.307-6.3305 5.823-6.3305z" fill-rule="evenodd"/>
  </g>
</svg>
