<svg width="16" height="26" viewBox="0 0 16 26" fill="none" xmlns="http://www.w3.org/2000/svg">
<path fill-rule="evenodd" clip-rule="evenodd" d="M2.34351 2.38026C5.469 -0.793419 10.5312 -0.793419 13.6559 2.38026C16.7814 5.55231 16.7814 10.6988 13.6559 13.8692C13.6559 13.8692 8.0001 19.4999 8.0001 26C8.0001 19.4999 2.34431 13.8692 2.34351 13.8692C-0.781171 10.6988 -0.781171 5.55231 2.34351 2.38026ZM4.44444 7.8C4.44444 9.7162 6.00982 11.2667 7.94444 11.2667C9.87907 11.2667 11.4444 9.7162 11.4444 7.8C11.4444 5.8838 9.87907 4.33333 7.94444 4.33333C6.00982 4.33333 4.44444 5.8838 4.44444 7.8Z" fill="white"/>
</svg>
