<svg width="19" height="16" viewBox="0 0 19 16" fill="none" xmlns="http://www.w3.org/2000/svg">
  <path fill-rule="evenodd" clip-rule="evenodd" d="M16.4 2.6998C17.2 2.1998 17.7999 1.4998 18 0.599805C17.2 0.999805 16.4 1.2998 15.6 1.4998C14.9 0.699805 14 0.299805 12.9 0.299805C11.8 0.299805 10.9 0.699805 10.2 1.3998C9.49995 2.0998 9.09995 3.0998 9.09995 4.0998C9.09995 4.3998 9.09995 4.6998 9.19995 4.9998C6.09995 4.8998 3.49995 3.5998 1.49995 0.999805C1.19995 1.5998 0.999951 2.1998 0.999951 2.8998C0.999951 4.2998 1.59995 5.2998 2.69995 6.0998C2.09995 5.9998 1.49995 5.89981 0.999951 5.5998C0.999951 6.5998 1.29995 7.39981 1.79995 8.0998C2.39995 8.7998 3.09995 9.2998 3.89995 9.39981C3.59995 9.49981 3.19995 9.4998 2.89995 9.4998C2.59995 9.4998 2.39995 9.49981 2.19995 9.39981C2.39995 10.1998 2.89995 10.7998 3.49995 11.2998C4.09995 11.7998 4.89995 11.9998 5.69995 12.0998C4.29995 13.1998 2.79995 13.6998 1.09995 13.6998C0.699951 13.6998 0.399951 13.6998 0.199951 13.6998C1.89995 14.7998 3.79995 15.3998 5.99995 15.3998C8.19995 15.3998 10.1 14.7998 11.8 13.6998C13.5 12.5998 14.7 11.1998 15.5 9.5998C16.3 7.9998 16.7 6.2998 16.7 4.4998V3.9998C17.5 3.3998 18.1 2.6998 18.6 1.9998C17.8 2.3998 17.1 2.5998 16.4 2.6998Z" />
</svg>
