<svg width="19" height="21" viewBox="0 0 19 21" fill="none" xmlns="http://www.w3.org/2000/svg">
  <path fill-rule="evenodd" clip-rule="evenodd" d="M11.7 7.4C11.7 7.3 11.6 7.2 11.6 7.2C11.6 7.1 11.6 7 11.6 7C11.6 6.9 11.6 6.8 11.6 6.6V6V2.2H12.8V6.6C12.8 6.7 12.8 6.8 12.9 6.9C12.9 7 13 7 13.1 7C13.2 7 13.3 7 13.4 6.9C13.5 6.8 13.5 6.7 13.5 6.6V2.2H14.6V7.8H13.2V7.3C13.1 7.5 13 7.6 12.8 7.7C12.7 7.8 12.5 7.8 12.3 7.8C12.1 7.8 11.9 7.8 11.8 7.7C11.8 7.7 11.7 7.6 11.7 7.4ZM8.5 6.5C8.5 6.6 8.6 6.8 8.7 6.9C8.8 7 8.9 7.1 9.1 7.1C9.2 7.1 9.4 7 9.5 6.9C9.6 6.8 9.7 6.7 9.7 6.5V3.5C9.7 3.3 9.6 3.2 9.5 3.1C9.4 3 9.3 2.9 9.1 2.9C9 2.9 8.8 3 8.7 3.1C8.6 3.2 8.5 3.4 8.5 3.5V6.5ZM7.4 4.3C7.4 3.8 7.4 3.4 7.5 3.1C7.6 2.8 7.8 2.5 8 2.4C8.2 2.2 8.6 2.1 8.9 2.1C9.2 2.1 9.5 2.2 9.7 2.3C9.9 2.4 10.1 2.6 10.3 2.8C10.4 3 10.5 3.2 10.5 3.4C10.6 3.6 10.6 3.9 10.6 4.3V5.7C10.6 6.2 10.6 6.6 10.5 6.8C10.5 7 10.4 7.2 10.2 7.5C10 7.7 9.9 7.9 9.7 8C9.6 8 9.4 8 9.1 8C8.8 8 8.5 8 8.3 7.9C8.1 7.8 7.9 7.7 7.8 7.5C7.7 7.4 7.6 7.1 7.5 6.9C7.4 6.7 7.4 6.3 7.4 5.8V4.3ZM4.7 3.7V8H6V3.7L7.6 0H6.2L5.4 2.8L4.5 0H3L4.7 3.7Z"/>
  <path fill-rule="evenodd" clip-rule="evenodd" d="M14.5 14.0001C14.5 13.9001 14.5 13.8001 14.4 13.7001C14.3 13.6001 14.2 13.6001 14.1 13.6001C14 13.6001 13.9 13.6001 13.8 13.7001C13.7 13.8001 13.7 13.9001 13.7 14.0001V14.6001H14.7L14.5 14.0001Z"/>
  <path fill-rule="evenodd" clip-rule="evenodd" d="M10.8 13.2998C10.7 13.2998 10.6 13.2998 10.5 13.3998C10.4 13.4998 10.4 13.5998 10.4 13.5998V16.2998C10.4 16.3998 10.4 16.4998 10.5 16.4998C10.6 16.5998 10.7 16.5998 10.8 16.5998C10.9 16.5998 11 16.5998 11.1 16.4998C11.2 16.3998 11.2 16.3998 11.2 16.2998V13.5998C11.2 13.4998 11.2 13.3998 11.1 13.3998C11 13.3998 10.9 13.2998 10.8 13.2998Z"/>
  <path fill-rule="evenodd" clip-rule="evenodd" d="M18.1001 10.7001C17.9001 10.4001 17.7001 10.1001 17.5001 9.9001C17.2001 9.7001 16.9001 9.5001 16.6001 9.3001C16.2001 9.2001 15.9001 9.1001 15.5001 9.1001H3.4001C3.0001 9.1001 2.6001 9.2001 2.3001 9.3001C1.9001 9.4001 1.6001 9.6001 1.4001 9.9001C1.1001 10.1001 0.900098 10.4001 0.800098 10.7001C0.600098 11.0001 0.600098 11.4001 0.600098 11.7001V17.7001C0.600098 18.1001 0.700098 18.4001 0.800098 18.7001C1.0001 19.0001 1.2001 19.3001 1.4001 19.5001C1.7001 19.7001 2.0001 19.9001 2.3001 20.1001C2.7001 20.2001 3.0001 20.3001 3.4001 20.3001H15.5001C15.9001 20.3001 16.3001 20.2001 16.7001 20.1001C17.1001 20.0001 17.4001 19.8001 17.6001 19.5001C17.9001 19.3001 18.1001 19.0001 18.2001 18.7001C18.4001 18.4001 18.4001 18.0001 18.4001 17.7001V11.7001C18.3001 11.4001 18.2001 11.1001 18.1001 10.7001ZM4.9001 17.4001H3.9001V12.1001H2.8001V11.3001H6.1001V12.1001H4.9001V17.4001ZM8.7001 17.4001H7.8001V16.8001C7.7001 16.9001 7.6001 17.0001 7.5001 17.1001C7.4001 17.2001 7.2001 17.3001 7.1001 17.3001C6.9001 17.4001 6.8001 17.4001 6.6001 17.4001C6.4001 17.4001 6.3001 17.4001 6.2001 17.3001C6.1001 17.2001 6.0001 17.1001 6.0001 17.0001C6.0001 16.9001 6.0001 16.7001 6.0001 16.6001C6.0001 16.5001 6.0001 16.4001 6.0001 16.3001C6.0001 16.1001 6.0001 16.0001 6.0001 15.7001V12.9001H7.0001V15.8001C7.0001 16.0001 7.0001 16.1001 7.0001 16.3001C7.0001 16.4001 7.0001 16.5001 7.0001 16.5001C7.1001 16.7001 7.2001 16.8001 7.3001 16.7001C7.4001 16.6001 7.5001 16.6001 7.6001 16.4001C7.6001 16.4001 7.7001 16.3001 7.6001 16.2001C7.6001 16.1001 7.6001 15.9001 7.6001 15.7001V12.9001H8.6001V17.4001H8.7001ZM12.0001 16.1001C12.0001 16.4001 12.0001 16.6001 11.9001 16.9001C11.8001 17.1001 11.7001 17.3001 11.5001 17.4001C11.3001 17.5001 11.2001 17.5001 10.9001 17.5001C10.7001 17.4001 10.4001 17.3001 10.2001 17.1001L10.1001 17.5001H9.2001V11.4001H10.2001V13.2001C10.5001 13.0001 10.8001 12.8001 11.1001 12.8001C11.2001 12.8001 11.4001 12.8001 11.5001 12.9001C11.8001 13.1001 12.0001 13.4001 12.0001 13.9001V16.1001ZM15.0001 17.0001C14.7001 17.3001 14.4001 17.4001 14.1001 17.5001H14.0001C13.7001 17.5001 13.4001 17.4001 13.1001 17.1001C12.8001 16.8001 12.6001 16.4001 12.6001 15.8001V14.4001C12.6001 14.0001 12.6001 13.7001 12.7001 13.4001C12.8001 13.2001 12.9001 13.0001 13.1001 12.8001C13.3001 12.7001 13.4001 12.6001 13.7001 12.6001C13.9001 12.6001 14.1001 12.6001 14.3001 12.6001C14.5001 12.6001 14.7001 12.7001 14.8001 12.9001C15.0001 13.0001 15.0001 13.2001 15.1001 13.4001C15.1001 13.5001 15.1001 13.7001 15.2001 13.9001C15.2001 14.1001 15.2001 14.3001 15.2001 14.6001V15.2001H13.4001V15.8001V16.2001C13.4001 16.3001 13.4001 16.4001 13.5001 16.5001C13.6001 16.6001 13.7001 16.6001 13.8001 16.6001H14.0001C14.1001 16.6001 14.2001 16.6001 14.3001 16.5001C14.4001 16.4001 14.4001 16.3001 14.4001 16.2001V16.0001V15.9001H15.2001C15.2001 16.0001 15.2001 16.1001 15.2001 16.3001C15.3001 16.5001 15.2001 16.8001 15.0001 17.0001Z"/>
</svg>
